# xmcd
#
# Track frame offsets:
#	150
#	15530
#	30075
#	47730
#	65008
#	80495
#	99390
#	115770
#	128413
#	143938
#
# Disc length: 2149 seconds
# Revision: 5
# Processed by: cddbd v1.5.2PL0 Copyright (c) Steve Scherf et al.
# Submitted via: dBpowerAMP V12.0
#
DISCID=7508630a
DTITLE=Eddie Rabbitt - Great Hits Of Eddie Rabbitt
DYEAR=1989
DGENRE=Country
TTITLE0=The Wanderer
TTITLE1=I Wanna Dance With You
TTITLE2=Both To Each Other Friends and Lovers
TTITLE3=Gotta Have You
TTITLE4=Repetitive Regret
TTITLE5=Letter From Home
TTITLE6=We Must Be Doin Somethin Right
TTITLE7=That's Why I Fell In Love With
TTITLE8=She's An Old Cadillac
TTITLE9=A World Without Love
EXTD=
EXTT0=
EXTT1=
EXTT2=
EXTT3=
EXTT4=
EXTT5=
EXTT6=
EXTT7=
EXTT8=
EXTT9=
PLAYORDER=
